<?xml version="1.0" standalone="no"?>
<!DOCTYPE svg PUBLIC "-//W3C//DTD SVG 20010904//EN"
 "http://www.w3.org/TR/2001/REC-SVG-20010904/DTD/svg10.dtd">
<svg version="1.0" xmlns="http://www.w3.org/2000/svg"
 width="225.000000pt" height="225.000000pt" viewBox="0 0 225.000000 225.000000"
 preserveAspectRatio="xMidYMid meet">

<g transform="translate(0.000000,225.000000) scale(0.100000,-0.100000)"
fill="#000000" stroke="none">
<path d="M841 1323 c-9 -20 -8 -23 8 -23 18 0 20 -10 23 -134 3 -117 6 -138
24 -162 35 -48 70 -67 129 -72 l56 -5 -3 34 c-3 32 -6 34 -47 40 -68 9 -91 42
-91 130 l0 69 54 0 c73 0 86 6 86 41 l0 29 -70 0 -70 0 0 40 0 41 -44 -2 c-36
-2 -47 -7 -55 -26z"/>
<path d="M673 1303 c-60 -35 -63 -39 -63 -75 l0 -38 -64 0 c-39 0 -67 -5 -73
-12 -8 -11 -9 -40 -4 -118 2 -37 37 -60 91 -60 l50 0 0 -40 0 -40 -61 0 c-34
0 -75 7 -93 15 -44 21 -76 80 -76 140 0 26 -3 45 -7 43 -66 -32 -62 -25 -65
-112 l-3 -81 -42 -3 -43 -3 0 50 c0 28 -2 51 -5 51 -3 0 -34 -18 -70 -41 -43
-27 -62 -45 -58 -55 3 -7 9 -11 14 -9 4 3 17 -2 27 -12 10 -10 25 -19 33 -21
8 -2 19 -8 24 -15 6 -7 17 -13 25 -15 8 -2 20 -8 25 -15 6 -7 17 -13 25 -15 8
-2 21 -10 28 -19 6 -9 20 -18 29 -19 10 -2 23 -10 29 -18 6 -9 14 -13 17 -9 4
3 7 1 7 -6 0 -7 4 -10 9 -6 6 3 14 -3 20 -12 9 -17 11 -17 25 2 8 11 16 17 16
13 0 -5 9 1 20 12 12 12 25 18 30 15 6 -4 10 -1 10 4 0 6 7 11 15 11 9 0 28
12 42 28 15 15 23 20 19 12 -5 -9 -2 -8 7 2 8 10 17 15 20 11 4 -3 7 -2 7 4 0
13 49 46 67 46 7 0 13 4 13 9 0 5 5 6 10 3 6 -3 10 -1 10 4 0 6 6 11 14 11 8
0 17 7 20 16 9 23 7 404 -1 404 -5 0 -36 -17 -70 -37z"/>
<path d="M1215 1263 c-35 -9 -87 -55 -101 -89 -18 -43 -18 -118 1 -153 35 -69
113 -104 185 -82 43 13 103 74 98 99 -5 27 -43 26 -74 -3 -52 -48 -114 -42
-147 14 -21 36 -21 54 -1 96 24 51 84 68 133 36 12 -7 10 -15 -7 -43 l-21 -34
47 2 c39 1 50 6 62 27 11 20 12 30 3 50 -25 55 -117 96 -178 80z"/>
<path d="M1525 1256 c-73 -34 -114 -116 -96 -195 13 -58 45 -97 97 -117 40
-15 53 -16 92 -5 33 9 47 9 52 1 4 -7 20 -10 36 -8 l29 3 3 95 c2 70 -2 106
-14 138 -29 76 -130 121 -199 88z m116 -85 c23 -23 29 -38 29 -71 0 -53 -42
-100 -90 -100 -47 0 -90 47 -90 97 0 90 90 134 151 74z"/>
<path d="M1742 1250 c-16 -26 -15 -27 7 -33 17 -4 18 -16 17 -146 l-1 -141 38
0 37 0 0 114 c0 124 8 146 54 146 46 0 56 -27 56 -148 l0 -112 35 0 35 0 0
110 c0 97 2 112 20 130 26 26 52 25 78 -3 18 -19 22 -36 24 -127 l3 -105 33
-3 32 -3 0 111 c0 128 -13 170 -62 200 -49 29 -126 23 -149 -12 -3 -5 -22 1
-43 13 -35 21 -67 22 -109 4 -13 -6 -16 -4 -11 9 10 26 -77 22 -94 -4z"/>
<path d="M63 1010 c0 -47 2 -66 4 -42 2 23 2 61 0 85 -2 23 -4 4 -4 -43z"/>
</g>
</svg>
